<?xml version="1.0" encoding="UTF-8" standalone="no"?>
<svg
   xmlns:dc="http://purl.org/dc/elements/1.1/"
   xmlns:cc="http://creativecommons.org/ns#"
   xmlns:rdf="http://www.w3.org/1999/02/22-rdf-syntax-ns#"
   xmlns:svg="http://www.w3.org/2000/svg"
   xmlns="http://www.w3.org/2000/svg"
   viewBox="0 0 28.07575 28.07575"
   height="28.07575"
   width="28.07575"
   xml:space="preserve"
   version="1.1"
   id="svg2"><metadata
     id="metadata8"><rdf:RDF><cc:Work
         rdf:about=""><dc:format>image/svg+xml</dc:format><dc:type
           rdf:resource="http://purl.org/dc/dcmitype/StillImage" /><dc:title></dc:title></cc:Work></rdf:RDF></metadata><defs
     id="defs6" /><g
     transform="matrix(1.25,0,0,-1.25,-419.34338,67.14575)"
     id="g10"><path
       d="m 336.1125,42.4863 c 0,5.8502 4.7423,10.5925 10.5925,10.5925 5.8502,0 10.5925,-4.7423 10.5925,-10.5925 0,-5.8502 -4.7423,-10.5925 -10.5925,-10.5925 -5.8502,0 -10.5925,4.7423 -10.5925,10.5925 z"
       style="fill:none;stroke:#231f20;stroke-width:1.27559996;stroke-linecap:butt;stroke-linejoin:miter;stroke-miterlimit:3.86360002;stroke-dasharray:none;stroke-opacity:1"
       id="path564" /><path
       id="rect4216"
       transform="matrix(0.8,0,0,-0.8,0,595)"
       d="m 427.53516,682.10156 0,16.94336 2.34179,0 0,-7.30273 7.12891,0 0,7.30273 2.33984,0 0,-16.94336 -2.33984,0 0,7.30078 -7.12891,0 0,-7.30078 -2.34179,0 z"
       style="opacity:1;fill:#231f20;fill-opacity:1;stroke:none;stroke-width:1;stroke-linecap:round;stroke-linejoin:miter;stroke-miterlimit:4;stroke-dasharray:none;stroke-opacity:1" /></g></svg>