<?xml version="1.0" encoding="UTF-8" standalone="no"?>
<svg
   xmlns:dc="http://purl.org/dc/elements/1.1/"
   xmlns:cc="http://creativecommons.org/ns#"
   xmlns:rdf="http://www.w3.org/1999/02/22-rdf-syntax-ns#"
   xmlns:svg="http://www.w3.org/2000/svg"
   xmlns="http://www.w3.org/2000/svg"
   viewBox="0 0 21.282749 20.716875"
   height="20.716875"
   width="21.282749"
   xml:space="preserve"
   version="1.1"
   id="svg2"><metadata
     id="metadata8"><rdf:RDF><cc:Work
         rdf:about=""><dc:format>image/svg+xml</dc:format><dc:type
           rdf:resource="http://purl.org/dc/dcmitype/StillImage" /><dc:title></dc:title></cc:Work></rdf:RDF></metadata><defs
     id="defs6" /><g
     transform="matrix(1.25,0,0,-1.25,-419.98962,100.51862)"
     id="g10"><path
       d="m 339.4346,74.634 c -6e-4,2.8802 2.2622,5.1431 5.0537,5.1431 2.7914,0 5.0543,-2.2629 5.0543,-5.0543"
       style="fill:none;stroke:#231f20;stroke-width:1.27559996;stroke-linecap:butt;stroke-linejoin:miter;stroke-miterlimit:3.86360002;stroke-dasharray:none;stroke-opacity:1"
       id="path216" /><path
       d="m 353.0179,64.5006 -3.476,0 3e-4,10.239"
       style="fill:none;stroke:#231f20;stroke-width:1.27559996;stroke-linecap:butt;stroke-linejoin:miter;stroke-miterlimit:3.86360002;stroke-dasharray:none;stroke-opacity:1"
       id="path218" /><path
       d="m 335.9917,64.4837 3.4423,0"
       style="fill:none;stroke:#231f20;stroke-width:1.27559996;stroke-linecap:butt;stroke-linejoin:miter;stroke-miterlimit:3.86360002;stroke-dasharray:none;stroke-opacity:1"
       id="path220" /><path
       d="m 340.0894,63.8414 0,10.8894"
       style="fill:none;stroke:#231f20;stroke-width:2.55119991;stroke-linecap:butt;stroke-linejoin:miter;stroke-miterlimit:3.86360002;stroke-dasharray:none;stroke-opacity:1"
       id="path222" /><path
       d="m 341.3589,74.7313 c -0.078,2.0242 1.2863,4.0979 3.1712,4.194 1.0425,0.053 1.8354,-0.025 2.6088,-0.5878 l -2.2382,1.5469 -3.7735,-1.6524 -1.9922,-3.5039 2.2239,0 z"
       style="fill:#231f20;fill-opacity:1;fill-rule:evenodd;stroke:none;stroke-width:0.80000001;stroke-linecap:butt;stroke-linejoin:miter;stroke-miterlimit:3.86360002;stroke-dasharray:none;stroke-opacity:1"
       id="path224" /></g></svg>