<?xml version="1.0" encoding="UTF-8" standalone="no"?>
<svg
   xmlns:dc="http://purl.org/dc/elements/1.1/"
   xmlns:cc="http://creativecommons.org/ns#"
   xmlns:rdf="http://www.w3.org/1999/02/22-rdf-syntax-ns#"
   xmlns:svg="http://www.w3.org/2000/svg"
   xmlns="http://www.w3.org/2000/svg"
   viewBox="0 0 24.803125 38.868053"
   height="38.868053"
   width="24.803125"
   xml:space="preserve"
   version="1.1"
   id="svg2"><metadata
     id="metadata8"><rdf:RDF><cc:Work
         rdf:about=""><dc:format>image/svg+xml</dc:format><dc:type
           rdf:resource="http://purl.org/dc/dcmitype/StillImage" /><dc:title></dc:title></cc:Work></rdf:RDF></metadata><defs
     id="defs6" /><g
     transform="matrix(1.25,0,0,-1.25,-418.14675,374.55043)"
     id="g10"><path
       d="m 339.0227,285.7292 c -2.1925,1.346 -3.6549,3.7658 -3.6549,6.5272 0,2.8408 1.5477,5.3201 3.9083,6.6407"
       style="fill:none;stroke:#231f20;stroke-width:1.70079994;stroke-linecap:butt;stroke-linejoin:miter;stroke-miterlimit:3.86360002;stroke-dasharray:none;stroke-opacity:1"
       id="path268" /><path
       d="m 349.6543,298.9024 c 2.3034,-1.3192 3.8552,-3.8013 3.8552,-6.646 0,-2.7514 -1.4518,-5.1638 -3.6312,-6.5127"
       style="fill:none;stroke:#231f20;stroke-width:1.70079994;stroke-linecap:butt;stroke-linejoin:miter;stroke-miterlimit:3.86360002;stroke-dasharray:none;stroke-opacity:1"
       id="path270" /><path
       d="m 340.7532,288.5882 c -1.2182,0.7478 -2.0307,2.0921 -2.0307,3.6264 0,1.5773 0.8588,2.9541 2.193,3.6881"
       style="fill:none;stroke:#231f20;stroke-width:1.70079994;stroke-linecap:butt;stroke-linejoin:miter;stroke-miterlimit:3.86360002;stroke-dasharray:none;stroke-opacity:1"
       id="path272" /><path
       d="m 347.9183,295.9073 c 1.2802,-0.7328 2.1427,-2.112 2.1427,-3.6927 0,-1.5099 -0.7871,-2.836 -1.9732,-3.5904"
       style="fill:none;stroke:#231f20;stroke-width:1.70079994;stroke-linecap:butt;stroke-linejoin:miter;stroke-miterlimit:3.86360002;stroke-dasharray:none;stroke-opacity:1"
       id="path274" /><path
       d="m 338.6692,275.3491 c 0,3.1702 2.5699,5.7401 5.7401,5.7401 3.1703,0 5.7402,-2.5699 5.7402,-5.7401 0,-3.1702 -2.5699,-5.7402 -5.7402,-5.7402 -3.1702,0 -5.7401,2.57 -5.7401,5.7402 z"
       style="fill:none;stroke:#231f20;stroke-width:2.12599993;stroke-linecap:butt;stroke-linejoin:miter;stroke-miterlimit:3.86360002;stroke-dasharray:none;stroke-opacity:1"
       id="path276" /><path
       d="m 344.4048,292.2964 0,-11.383"
       style="fill:none;stroke:#231f20;stroke-width:2.12599993;stroke-linecap:butt;stroke-linejoin:miter;stroke-miterlimit:3.86360002;stroke-dasharray:none;stroke-opacity:1"
       id="path278" /><path
       d="m 339.0227,285.7292 c -2.1925,1.346 -3.6549,3.7658 -3.6549,6.5272 0,2.8408 1.5477,5.3201 3.9083,6.6407"
       style="fill:none;stroke:#231f20;stroke-width:1.70079994;stroke-linecap:butt;stroke-linejoin:miter;stroke-miterlimit:3.86360002;stroke-dasharray:none;stroke-opacity:1"
       id="path310" /><path
       d="m 349.6543,298.9024 c 2.3034,-1.3192 3.8552,-3.8013 3.8552,-6.646 0,-2.7514 -1.4518,-5.1638 -3.6312,-6.5127"
       style="fill:none;stroke:#231f20;stroke-width:1.70079994;stroke-linecap:butt;stroke-linejoin:miter;stroke-miterlimit:3.86360002;stroke-dasharray:none;stroke-opacity:1"
       id="path312" /><path
       d="m 340.7532,288.5882 c -1.2182,0.7478 -2.0307,2.0921 -2.0307,3.6264 0,1.5773 0.8588,2.9541 2.193,3.6881"
       style="fill:none;stroke:#231f20;stroke-width:1.70079994;stroke-linecap:butt;stroke-linejoin:miter;stroke-miterlimit:3.86360002;stroke-dasharray:none;stroke-opacity:1"
       id="path314" /><path
       d="m 347.9183,295.9073 c 1.2802,-0.7328 2.1427,-2.112 2.1427,-3.6927 0,-1.5099 -0.7871,-2.836 -1.9732,-3.5904"
       style="fill:none;stroke:#231f20;stroke-width:1.70079994;stroke-linecap:butt;stroke-linejoin:miter;stroke-miterlimit:3.86360002;stroke-dasharray:none;stroke-opacity:1"
       id="path316" /><path
       d="m 338.6692,275.3491 c 0,3.1702 2.5699,5.7401 5.7401,5.7401 3.1703,0 5.7402,-2.5699 5.7402,-5.7401 0,-3.1702 -2.5699,-5.7402 -5.7402,-5.7402 -3.1702,0 -5.7401,2.57 -5.7401,5.7402 z"
       style="fill:none;stroke:#231f20;stroke-width:2.12599993;stroke-linecap:butt;stroke-linejoin:miter;stroke-miterlimit:3.86360002;stroke-dasharray:none;stroke-opacity:1"
       id="path318" /><path
       d="m 344.4048,292.2964 0,-11.383"
       style="fill:none;stroke:#231f20;stroke-width:2.12599993;stroke-linecap:butt;stroke-linejoin:miter;stroke-miterlimit:3.86360002;stroke-dasharray:none;stroke-opacity:1"
       id="path320" /><path
       d="m 339.0227,285.7292 c -2.1925,1.346 -3.6549,3.7658 -3.6549,6.5272 0,2.8408 1.5477,5.3201 3.9083,6.6407"
       style="fill:none;stroke:#231f20;stroke-width:1.70079994;stroke-linecap:butt;stroke-linejoin:miter;stroke-miterlimit:3.86360002;stroke-dasharray:none;stroke-opacity:1"
       id="path334" /><path
       d="m 349.6543,298.9024 c 2.3034,-1.3192 3.8552,-3.8013 3.8552,-6.646 0,-2.7514 -1.4518,-5.1638 -3.6312,-6.5127"
       style="fill:none;stroke:#231f20;stroke-width:1.70079994;stroke-linecap:butt;stroke-linejoin:miter;stroke-miterlimit:3.86360002;stroke-dasharray:none;stroke-opacity:1"
       id="path336" /><path
       d="m 340.7532,288.5882 c -1.2182,0.7478 -2.0307,2.0921 -2.0307,3.6264 0,1.5773 0.8588,2.9541 2.193,3.6881"
       style="fill:none;stroke:#231f20;stroke-width:1.70079994;stroke-linecap:butt;stroke-linejoin:miter;stroke-miterlimit:3.86360002;stroke-dasharray:none;stroke-opacity:1"
       id="path338" /><path
       d="m 347.9183,295.9073 c 1.2802,-0.7328 2.1427,-2.112 2.1427,-3.6927 0,-1.5099 -0.7871,-2.836 -1.9732,-3.5904"
       style="fill:none;stroke:#231f20;stroke-width:1.70079994;stroke-linecap:butt;stroke-linejoin:miter;stroke-miterlimit:3.86360002;stroke-dasharray:none;stroke-opacity:1"
       id="path340" /><path
       d="m 338.6692,275.3491 c 0,3.1702 2.5699,5.7401 5.7401,5.7401 3.1703,0 5.7402,-2.5699 5.7402,-5.7401 0,-3.1702 -2.5699,-5.7402 -5.7402,-5.7402 -3.1702,0 -5.7401,2.57 -5.7401,5.7402 z"
       style="fill:none;stroke:#231f20;stroke-width:2.12599993;stroke-linecap:butt;stroke-linejoin:miter;stroke-miterlimit:3.86360002;stroke-dasharray:none;stroke-opacity:1"
       id="path342" /><path
       d="m 344.4048,292.2964 0,-11.383"
       style="fill:none;stroke:#231f20;stroke-width:2.12599993;stroke-linecap:butt;stroke-linejoin:miter;stroke-miterlimit:3.86360002;stroke-dasharray:none;stroke-opacity:1"
       id="path344" /></g></svg>