<?xml version="1.0" encoding="UTF-8" standalone="no"?>
<svg
   xmlns:dc="http://purl.org/dc/elements/1.1/"
   xmlns:cc="http://creativecommons.org/ns#"
   xmlns:rdf="http://www.w3.org/1999/02/22-rdf-syntax-ns#"
   xmlns:svg="http://www.w3.org/2000/svg"
   xmlns="http://www.w3.org/2000/svg"
   viewBox="0 0 32.684669 39.199562"
   height="39.199562"
   width="32.684669"
   xml:space="preserve"
   version="1.1"
   id="svg2"><metadata
     id="metadata8"><rdf:RDF><cc:Work
         rdf:about=""><dc:format>image/svg+xml</dc:format><dc:type
           rdf:resource="http://purl.org/dc/dcmitype/StillImage" /><dc:title></dc:title></cc:Work></rdf:RDF></metadata><defs
     id="defs6" /><g
     transform="matrix(1.25,0,0,-1.25,-414.18779,456.07144)"
     id="g10"><path
       d="m 331.67,364.1633 25.5082,-14.675"
       style="fill:none;stroke:#231f20;stroke-width:1.27559996;stroke-linecap:butt;stroke-linejoin:miter;stroke-miterlimit:3.86360002;stroke-dasharray:none;stroke-opacity:1"
       id="path258" /><path
       d="m 331.67,349.5246 25.5082,14.7807"
       style="fill:none;stroke:#231f20;stroke-width:1.27559996;stroke-linecap:butt;stroke-linejoin:miter;stroke-miterlimit:3.86360002;stroke-dasharray:none;stroke-opacity:1"
       id="path260" /><path
       d="m 348.3963,356.8575 -2.034,-3.523 -4.068,0 -2.034,3.523 2.034,3.5231 4.068,0 2.034,-3.5231 z"
       style="fill:#ffffff;fill-opacity:1;fill-rule:nonzero;stroke:none"
       id="path262" /><path
       d="m 344.3548,355.7088 0,-9.1527"
       style="fill:none;stroke:#231f20;stroke-width:3.40159988;stroke-linecap:butt;stroke-linejoin:miter;stroke-miterlimit:3.86360002;stroke-dasharray:none;stroke-opacity:1"
       id="path264" /><path
       d="m 338.7162,340.3007 c 0,3.1702 2.5699,5.7401 5.7401,5.7401 3.1702,0 5.7402,-2.5699 5.7402,-5.7401 0,-3.1703 -2.57,-5.7402 -5.7402,-5.7402 -3.1702,0 -5.7401,2.5699 -5.7401,5.7402 z"
       style="fill:none;stroke:#231f20;stroke-width:2.12599993;stroke-linecap:butt;stroke-linejoin:miter;stroke-miterlimit:3.86360002;stroke-dasharray:none;stroke-opacity:1"
       id="path266" /></g></svg>