<?xml version="1.0" encoding="UTF-8" standalone="no"?>
<svg
   xmlns:dc="http://purl.org/dc/elements/1.1/"
   xmlns:cc="http://creativecommons.org/ns#"
   xmlns:rdf="http://www.w3.org/1999/02/22-rdf-syntax-ns#"
   xmlns:svg="http://www.w3.org/2000/svg"
   xmlns="http://www.w3.org/2000/svg"
   viewBox="0 0 26.580126 34.987621"
   height="34.987621"
   width="26.580126"
   xml:space="preserve"
   version="1.1"
   id="svg2"><metadata
     id="metadata8"><rdf:RDF><cc:Work
         rdf:about=""><dc:format>image/svg+xml</dc:format><dc:type
           rdf:resource="http://purl.org/dc/dcmitype/StillImage" /><dc:title></dc:title></cc:Work></rdf:RDF></metadata><defs
     id="defs6" /><g
     transform="matrix(1.25,0,0,-1.25,-417.23063,277.31562)"
     id="g10"><path
       d="m 344.4147,194.6253 -9.9924,6.5636 0,20.0258 19.9885,0 0,-20.0343 -9.9961,-6.5551 z"
       style="fill:#ffffff;stroke:#231f20;stroke-width:1.27559996;stroke-linecap:butt;stroke-linejoin:miter;stroke-miterlimit:3.86360002;stroke-dasharray:none;stroke-opacity:1;fill-opacity:1"
       id="path238" /><text
       y="-202.7126"
       x="337.4537"
       transform="scale(1,-1)"
       style="font-variant:normal;font-weight:normal;font-size:21px;font-family:Arial;-inkscape-font-specification:Arial;writing-mode:lr-tb;fill:#231f20;fill-opacity:1;fill-rule:nonzero;stroke:none"
       id="text240"><tspan
         x="337.4537"
         y="-202.7126"
         id="tspan242">P</tspan></text>
<path
       d="m 339.0824,202.7436 0,15.036 5.6769,0 c 0.999,0 1.762,-0.048 2.289,-0.1434 0.7391,-0.1227 1.3585,-0.3564 1.8582,-0.7009 0.4996,-0.3445 0.9016,-0.8272 1.2062,-1.4482 0.3044,-0.6209 0.4567,-1.3032 0.4567,-2.047 0,-1.2759 -0.407,-2.3557 -1.2211,-3.2392 -0.8141,-0.8836 -2.2849,-1.3253 -4.4125,-1.3253 l -3.8584,0 0,-6.132 -1.995,0 z m 1.995,7.896 3.8863,0 c 1.2852,0 2.1977,0.2393 2.7377,0.7181 0.54,0.4787 0.81,1.1524 0.81,2.0211 0,0.6293 -0.1589,1.168 -0.4768,1.616 -0.3178,0.448 -0.7365,0.7438 -1.256,0.8876 -0.3349,0.089 -0.9536,0.1332 -1.8559,0.1332 l -3.8453,0 0,-5.376 z"
       style="fill:#231f20;fill-opacity:1;fill-rule:evenodd;stroke:none"
       id="path244" /></g></svg>