<?xml version="1.0" encoding="UTF-8" standalone="no"?>
<svg
   xmlns:dc="http://purl.org/dc/elements/1.1/"
   xmlns:cc="http://creativecommons.org/ns#"
   xmlns:rdf="http://www.w3.org/1999/02/22-rdf-syntax-ns#"
   xmlns:svg="http://www.w3.org/2000/svg"
   xmlns="http://www.w3.org/2000/svg"
   id="svg2"
   version="1.1"
   xml:space="preserve"
   width="26.574875"
   height="26.574499"
   viewBox="0 0 26.574875 26.574499"><metadata
     id="metadata8"><rdf:RDF><cc:Work
         rdf:about=""><dc:format>image/svg+xml</dc:format><dc:type
           rdf:resource="http://purl.org/dc/dcmitype/StillImage" /><dc:title></dc:title></cc:Work></rdf:RDF></metadata><defs
     id="defs6" /><path
     d="m 0.797245,0.79725 24.980375,0 0,24.98 -24.980375,0 0,-24.98 z"
     style="fill:#ffffff;stroke:#231f20;stroke-width:1.59449995;stroke-linecap:round;stroke-linejoin:miter;stroke-miterlimit:3.86360002;stroke-dasharray:none;stroke-opacity:1;fill-opacity:1"
     id="path464" /><path
     d="m 7.83887,22.88225 2.625,0 0,-8.42625 3.07125,0 c 1.669,0 2.924625,-0.1525 3.766875,-0.44 0.842125,-0.2875 1.494,-0.68375 1.955625,-1.1875 0.51025,-0.5125 0.887625,-1.07625 1.132,-1.69375 0.2445,-0.61625 0.365875,-1.28625 0.36425,-2.0075 0.0011,-0.7125 -0.1125,-1.38125 -0.34125,-2.005 -0.228625,-0.62375 -0.578625,-1.18125 -1.05,-1.67 -0.633875,-0.6725 -1.36775,-1.1 -2.20175,-1.28375 -0.834,-0.1825 -1.82375,-0.2625 -2.9695,-0.23875 l -6.3525,0 0,18.9525 z m 2.625,-16.82625 3.675,0 c 0.477,-0.0125 1.0105,0.0125 1.60025,0.1125 0.589875,0.0875 1.103875,0.3475 1.542,0.76875 0.438125,0.42125 0.66825,1.11625 0.69025,2.0875 -0.0225,1.015 -0.2725,1.7525 -0.7515,2.21375 -0.479,0.46125 -1.05425,0.75 -1.72575,0.86625 -0.6715,0.1125 -1.307,0.16625 -1.9065,0.14875 l -3.12375,0 0,-6.195 z"
     style="fill:#231f20;fill-opacity:1;fill-rule:evenodd;stroke:none"
     id="path252" /><path
     d="m 7.83887,22.88225 2.625,0 0,-8.42625 3.07125,0 c 1.669,0 2.924625,-0.1525 3.766875,-0.44 0.842125,-0.2875 1.494,-0.68375 1.955625,-1.1875 0.51025,-0.5125 0.887625,-1.07625 1.132,-1.69375 0.2445,-0.61625 0.365875,-1.28625 0.36425,-2.0075 0.0011,-0.7125 -0.1125,-1.38125 -0.34125,-2.005 -0.228625,-0.62375 -0.578625,-1.18125 -1.05,-1.67 -0.633875,-0.6725 -1.36775,-1.1 -2.20175,-1.28375 -0.834,-0.1825 -1.82375,-0.2625 -2.9695,-0.23875 l -6.3525,0 0,18.9525 z m 2.625,-16.82625 3.675,0 c 0.477,-0.0125 1.0105,0.0125 1.60025,0.1125 0.589875,0.0875 1.103875,0.3475 1.542,0.76875 0.438125,0.42125 0.66825,1.11625 0.69025,2.0875 -0.0225,1.015 -0.2725,1.7525 -0.7515,2.21375 -0.479,0.46125 -1.05425,0.75 -1.72575,0.86625 -0.6715,0.1125 -1.307,0.16625 -1.9065,0.14875 l -3.12375,0 0,-6.195 z"
     style="fill:#231f20;fill-opacity:1;fill-rule:evenodd;stroke:none"
     id="path290" /><path
     d="m 0.797245,0.79725 24.980375,0 0,24.98 -24.980375,0 0,-24.98 z"
     style="fill:none;stroke:#231f20;stroke-width:1.59449995;stroke-linecap:round;stroke-linejoin:miter;stroke-miterlimit:3.86360002;stroke-dasharray:none;stroke-opacity:1"
     id="path460" /></svg>