<?xml version="1.0" encoding="UTF-8" standalone="no"?>
<svg
   xmlns:dc="http://purl.org/dc/elements/1.1/"
   xmlns:cc="http://creativecommons.org/ns#"
   xmlns:rdf="http://www.w3.org/1999/02/22-rdf-syntax-ns#"
   xmlns:svg="http://www.w3.org/2000/svg"
   xmlns="http://www.w3.org/2000/svg"
   id="svg2"
   height="292.25784"
   width="384.84479"
   version="1.0">
  <defs
     id="defs12" />
  <metadata
     id="metadata2975">
    <rdf:RDF>
      <cc:Work
         rdf:about="">
        <dc:format>image/svg+xml</dc:format>
        <dc:type
           rdf:resource="http://purl.org/dc/dcmitype/StillImage" />
        <cc:license
           rdf:resource="http://web.resource.org/cc/PublicDomain" />
        <dc:language>en</dc:language>
        <dc:title></dc:title>
      </cc:Work>
    </rdf:RDF>
  </metadata>
  <rect
     y="0.00084329589"
     x="0"
     height="292.25699"
     width="384.84399"
     id="rect4745"
     style="opacity:1;fill:#ffffff;fill-opacity:1;stroke:none;stroke-width:1;stroke-linecap:round;stroke-linejoin:miter;stroke-miterlimit:4;stroke-dasharray:none;stroke-opacity:1" />
  <path
     id="flowRoot3192"
     d="m 27.006749,46.30083 99.827901,100.31358 -99.827901,99.82789 0,-200.14147 z M 337.57262,27.49203 214.60902,149.98468 c -6.11287,6.11275 -13.82967,9.16905 -23.15042,9.16892 -9.645,1.3e-4 -17.68558,-3.21806 -24.12175,-9.65461 L 45.329889,27.49203 l 292.242731,0 z m 19.29447,218.95027 -99.8279,-99.82789 99.8279,-100.31358 0,200.14147 z m -312.022881,18.80879 100.313561,-99.8279 4.34164,4.34163 c 11.57744,11.25399 25.56382,16.88093 41.95919,16.88082 16.39489,1.1e-4 30.21939,-5.62683 41.47355,-16.88082 l 4.34161,-4.34163 100.29886,99.8279 -292.728411,0 z M 3.8820654e-4,292.25746 384.8448,292.25746 384.8448,0 3.8820654e-4,0 l 0,292.25746 z"
     style="font-style:normal;font-variant:normal;font-weight:normal;font-stretch:normal;font-size:40px;line-height:125%;font-family:NPSPICT3;-inkscape-font-specification:NPSPICT3;text-align:start;writing-mode:lr-tb;text-anchor:start;fill:#231f20;fill-opacity:1;stroke:none;stroke-width:1px;stroke-linecap:butt;stroke-linejoin:miter;stroke-opacity:1" />
</svg>
