<?xml version="1.0" encoding="UTF-8" standalone="no"?>
<svg
   xmlns:dc="http://purl.org/dc/elements/1.1/"
   xmlns:cc="http://creativecommons.org/ns#"
   xmlns:rdf="http://www.w3.org/1999/02/22-rdf-syntax-ns#"
   xmlns:svg="http://www.w3.org/2000/svg"
   xmlns="http://www.w3.org/2000/svg"
   id="svg2"
   height="580"
   width="580"
   version="1.0">
  <defs
     id="defs3263" />
  <metadata
     id="metadata2975">
    <rdf:RDF>
      <cc:Work
         rdf:about="">
        <dc:format>image/svg+xml</dc:format>
        <dc:type
           rdf:resource="http://purl.org/dc/dcmitype/StillImage" />
        <cc:license
           rdf:resource="http://web.resource.org/cc/PublicDomain" />
        <dc:language>en</dc:language>
        <dc:title></dc:title>
      </cc:Work>
    </rdf:RDF>
  </metadata>
  <path
     id="flowRoot3192"
     d="M 131.79596,192.04629 L 228.24657,288.96614 L 131.79596,385.41673 L 131.79596,192.04629 z M 431.85502,173.87381 L 313.05143,292.22239 C 307.14536,298.12834 299.68963,301.08124 290.68421,301.08111 C 281.36551,301.08124 273.59696,297.97192 267.37853,291.75313 L 149.49921,173.87381 L 431.85502,173.87381 z M 450.49674,385.41673 L 354.04613,288.96614 L 450.49674,192.04629 L 450.49674,385.41673 z M 149.02996,403.5892 L 245.9498,307.1386 L 250.14455,311.33334 C 261.33031,322.2066 274.84352,327.64317 290.68421,327.64306 C 306.52444,327.64317 319.88125,322.2066 330.75466,311.33334 L 334.94939,307.1386 L 431.85502,403.5892 L 149.02996,403.5892 z M 105.70326,429.68191 L 477.52793,429.68191 L 477.52793,147.31187 L 105.70326,147.31187 L 105.70326,429.68191 z"
     style="font-size:40px;font-style:normal;font-variant:normal;font-weight:normal;font-stretch:normal;text-align:start;line-height:125%;writing-mode:lr-tb;text-anchor:start;fill:#231f20;fill-opacity:1;stroke:none;stroke-width:1px;stroke-linecap:butt;stroke-linejoin:miter;stroke-opacity:1;font-family:NPSPICT3;-inkscape-font-specification:NPSPICT3" />
  <circle
     d="M 505.71429,305.71429 A 288.57144,288.57144 0 1 1 -71.428589,305.71429 A 288.57144,288.57144 0 1 1 505.71429,305.71429 z"
     transform="matrix(0.9469422,0,0,0.9469422,85.693279,2.9720757)"
     id="path2207"
     style="fill:none;fill-opacity:1;stroke:#231f20;stroke-width:25.1376152;stroke-miterlimit:4;stroke-dasharray:none;stroke-dashoffset:0;stroke-opacity:1" />
</svg>
