<?xml version="1.0" encoding="UTF-8" standalone="no"?>
<svg
   xmlns:dc="http://purl.org/dc/elements/1.1/"
   xmlns:cc="http://creativecommons.org/ns#"
   xmlns:rdf="http://www.w3.org/1999/02/22-rdf-syntax-ns#"
   xmlns:svg="http://www.w3.org/2000/svg"
   xmlns="http://www.w3.org/2000/svg"
   viewBox="0 0 27.436625 27.437"
   height="27.437"
   width="27.436625"
   xml:space="preserve"
   version="1.1"
   id="svg2"><metadata
     id="metadata8"><rdf:RDF><cc:Work
         rdf:about=""><dc:format>image/svg+xml</dc:format><dc:type
           rdf:resource="http://purl.org/dc/dcmitype/StillImage" /><dc:title></dc:title></cc:Work></rdf:RDF></metadata><defs
     id="defs6" /><g
     transform="matrix(1.25,0,0,-1.25,-416.6935,543.5135)"
     id="g10"><path
       d="m 333.9926,423.836 c 0,5.709 4.6279,10.337 10.3368,10.337 5.709,0 10.3369,-4.628 10.3369,-10.337 0,-5.709 -4.6279,-10.337 -10.3369,-10.337 -5.7089,0 -10.3368,4.628 -10.3368,10.337 z"
       style="fill:none;stroke:#231f20;stroke-width:1.27559996;stroke-linecap:butt;stroke-linejoin:miter;stroke-miterlimit:3.86360002;stroke-dasharray:none;stroke-opacity:1"
       id="path278" /><path
       d="m 339.1318,430.229 0,-7.919 c 0.01,-0.951 0.083,-1.669 0.2295,-2.152 0.1462,-0.483 0.3217,-0.857 0.5265,-1.125 0.4136,-0.569 0.8983,-1.004 1.454,-1.304 0.5556,-0.3 1.1123,-0.505 1.67,-0.613 0.5577,-0.108 1.0463,-0.159 1.466,-0.152 0.3228,0 0.7292,0.03 1.2193,0.11 0.4901,0.08 0.9992,0.252 1.5274,0.511 0.5281,0.259 1.0105,0.652 1.4473,1.178 0.501,0.668 0.8085,1.318 0.9225,1.951 0.114,0.634 0.1605,1.135 0.1395,1.506 l 0,8.009 -1.746,0 0,-7.974 c 0.022,-0.34 -0.022,-0.797 -0.13,-1.372 -0.1084,-0.575 -0.4117,-1.098 -0.91,-1.569 -0.4984,-0.471 -1.3217,-0.72 -2.47,-0.748 -0.4669,-0.02 -0.9731,0.06 -1.5188,0.234 -0.5456,0.17 -1.0293,0.518 -1.4512,1.043 -0.1421,0.177 -0.2719,0.441 -0.3893,0.792 -0.1173,0.352 -0.1796,0.868 -0.1867,1.548 l 0,8.046 -1.8,0 z"
       style="fill:#231f20;fill-opacity:1;fill-rule:evenodd;stroke:none"
       id="path280" /><path
       d="m 333.9926,423.836 c 0,5.709 4.6279,10.337 10.3368,10.337 5.709,0 10.3369,-4.628 10.3369,-10.337 0,-5.709 -4.6279,-10.337 -10.3369,-10.337 -5.7089,0 -10.3368,4.628 -10.3368,10.337 z"
       style="fill:#ffffff;fill-opacity:1;stroke:#231f20;stroke-width:1.27559996;stroke-linecap:butt;stroke-linejoin:miter;stroke-miterlimit:3.86360002;stroke-dasharray:none;stroke-opacity:1"
       id="path348" /><path
       d="m 339.1318,430.229 0,-7.919 c 0.01,-0.951 0.083,-1.669 0.2295,-2.152 0.1462,-0.483 0.3217,-0.857 0.5265,-1.125 0.4136,-0.569 0.8983,-1.004 1.454,-1.304 0.5556,-0.3 1.1123,-0.505 1.67,-0.613 0.5577,-0.108 1.0463,-0.159 1.466,-0.152 0.3228,0 0.7292,0.03 1.2193,0.11 0.4901,0.08 0.9992,0.252 1.5274,0.511 0.5281,0.259 1.0105,0.652 1.4473,1.178 0.501,0.668 0.8085,1.318 0.9225,1.951 0.114,0.634 0.1605,1.135 0.1395,1.506 l 0,8.009 -1.746,0 0,-7.974 c 0.022,-0.34 -0.022,-0.797 -0.13,-1.372 -0.1084,-0.575 -0.4117,-1.098 -0.91,-1.569 -0.4984,-0.471 -1.3217,-0.72 -2.47,-0.748 -0.4669,-0.02 -0.9731,0.06 -1.5188,0.234 -0.5456,0.17 -1.0293,0.518 -1.4512,1.043 -0.1421,0.177 -0.2719,0.441 -0.3893,0.792 -0.1173,0.352 -0.1796,0.868 -0.1867,1.548 l 0,8.046 -1.8,0 z"
       style="fill:#231f20;fill-opacity:1;fill-rule:evenodd;stroke:none"
       id="path350" /></g></svg>