<?xml version="1.0" encoding="UTF-8" standalone="no"?>
<svg
   xmlns:dc="http://purl.org/dc/elements/1.1/"
   xmlns:cc="http://creativecommons.org/ns#"
   xmlns:rdf="http://www.w3.org/1999/02/22-rdf-syntax-ns#"
   xmlns:svg="http://www.w3.org/2000/svg"
   xmlns="http://www.w3.org/2000/svg"
   viewBox="0 0 13.250375 13.25075"
   height="13.25075"
   width="13.250375"
   xml:space="preserve"
   version="1.1"
   id="svg2"><metadata
     id="metadata8"><rdf:RDF><cc:Work
         rdf:about=""><dc:format>image/svg+xml</dc:format><dc:type
           rdf:resource="http://purl.org/dc/dcmitype/StillImage" /><dc:title></dc:title></cc:Work></rdf:RDF></metadata><defs
     id="defs6" /><g
     transform="matrix(1.25,0,0,-1.25,-423.888,447.7935)"
     id="g10"><path
       d="m 339.7482,352.935 c 0,2.575 2.0874,4.662 4.6623,4.662 2.575,0 4.6624,-2.087 4.6624,-4.662 0,-2.575 -2.0874,-4.663 -4.6624,-4.663 -2.5749,0 -4.6623,2.088 -4.6623,4.663 z"
       style="fill:#ffffff;fill-opacity:1;fill-rule:nonzero;stroke:#231f20;stroke-width:1.27559996;stroke-linecap:butt;stroke-linejoin:miter;stroke-miterlimit:3.86360002;stroke-dasharray:none;stroke-opacity:1"
       id="path294" /><path
       d="m 339.7482,352.935 c 0,2.575 2.0874,4.662 4.6623,4.662 2.575,0 4.6624,-2.087 4.6624,-4.662 0,-2.575 -2.0874,-4.663 -4.6624,-4.663 -2.5749,0 -4.6623,2.088 -4.6623,4.663 z"
       style="fill:#ffffff;fill-opacity:1;fill-rule:nonzero;stroke:#231f20;stroke-width:1.27559996;stroke-linecap:butt;stroke-linejoin:miter;stroke-miterlimit:3.86360002;stroke-dasharray:none;stroke-opacity:1"
       id="path352" /></g></svg>