<?xml version="1.0" encoding="UTF-8" standalone="no"?>
<svg
   xmlns:dc="http://purl.org/dc/elements/1.1/"
   xmlns:cc="http://creativecommons.org/ns#"
   xmlns:rdf="http://www.w3.org/1999/02/22-rdf-syntax-ns#"
   xmlns:svg="http://www.w3.org/2000/svg"
   xmlns="http://www.w3.org/2000/svg"
   viewBox="0 0 22.138708 21.018902"
   height="21.018902"
   width="22.138708"
   xml:space="preserve"
   version="1.1"
   id="svg2"><metadata
     id="metadata8"><rdf:RDF><cc:Work
         rdf:about=""><dc:format>image/svg+xml</dc:format><dc:type
           rdf:resource="http://purl.org/dc/dcmitype/StillImage" /><dc:title></dc:title></cc:Work></rdf:RDF></metadata><defs
     id="defs6" /><g
     transform="matrix(1.25,0,0,-1.25,-419.47546,274.78188)"
     id="g10"><path
       d="m 342.768,219.4255 3.4039,0 0,-3.4038 -3.4039,0 0,3.4038 z"
       style="fill:#231f20;fill-opacity:1;fill-rule:evenodd;stroke:#231f20;stroke-width:0.80000001;stroke-linecap:butt;stroke-linejoin:miter;stroke-miterlimit:3.86360002;stroke-dasharray:none;stroke-opacity:1"
       id="path226" /><path
       d="m 336.0844,212.1682 1.0519,3.2372 3.2372,-1.0518 -1.0518,-3.2373 -3.2373,1.0519 z"
       style="fill:#231f20;fill-opacity:1;fill-rule:evenodd;stroke:#231f20;stroke-width:0.80000001;stroke-linecap:butt;stroke-linejoin:miter;stroke-miterlimit:3.86360002;stroke-dasharray:none;stroke-opacity:1"
       id="path228" /><path
       d="m 340.9211,203.5691 -2.7536,2.0007 2.0007,2.7537 2.7537,-2.0007 -2.0008,-2.7537 z"
       style="fill:#231f20;fill-opacity:1;fill-rule:evenodd;stroke:#231f20;stroke-width:0.80000001;stroke-linecap:butt;stroke-linejoin:miter;stroke-miterlimit:3.86360002;stroke-dasharray:none;stroke-opacity:1"
       id="path230" /><path
       d="m 350.4786,205.6848 -2.7537,-2.0006 -2.0007,2.7537 2.7537,2.0007 2.0007,-2.7538 z"
       style="fill:#231f20;fill-opacity:1;fill-rule:evenodd;stroke:#231f20;stroke-width:0.80000001;stroke-linecap:butt;stroke-linejoin:miter;stroke-miterlimit:3.86360002;stroke-dasharray:none;stroke-opacity:1"
       id="path232" /><path
       d="m 351.7355,215.3114 1.0518,-3.2372 -3.2372,-1.0517 -1.0518,3.2372 3.2372,1.0517 z"
       style="fill:#231f20;fill-opacity:1;fill-rule:evenodd;stroke:#231f20;stroke-width:0.80000001;stroke-linecap:butt;stroke-linejoin:miter;stroke-miterlimit:3.86360002;stroke-dasharray:none;stroke-opacity:1"
       id="path234" /><path
       d="m 339.9038,211.1972 c 0,2.4946 2.0223,4.5169 4.5169,4.5169 2.4946,0 4.5168,-2.0223 4.5168,-4.5169 0,-2.4946 -2.0222,-4.5168 -4.5168,-4.5168 -2.4946,0 -4.5169,2.0222 -4.5169,4.5168 z"
       style="fill:none;stroke:#231f20;stroke-width:1.27559996;stroke-linecap:butt;stroke-linejoin:miter;stroke-miterlimit:3.86360002;stroke-dasharray:none;stroke-opacity:1"
       id="path236" /></g></svg>