<?xml version="1.0" encoding="UTF-8" standalone="no"?>
<svg
   xmlns:dc="http://purl.org/dc/elements/1.1/"
   xmlns:cc="http://creativecommons.org/ns#"
   xmlns:rdf="http://www.w3.org/1999/02/22-rdf-syntax-ns#"
   xmlns:svg="http://www.w3.org/2000/svg"
   xmlns="http://www.w3.org/2000/svg"
   viewBox="0 0 31.085297 26.920763"
   height="26.920763"
   width="31.085297"
   xml:space="preserve"
   version="1.1"
   id="svg2"><metadata
     id="metadata8"><rdf:RDF><cc:Work
         rdf:about=""><dc:format>image/svg+xml</dc:format><dc:type
           rdf:resource="http://purl.org/dc/dcmitype/StillImage" /><dc:title></dc:title></cc:Work></rdf:RDF></metadata><defs
     id="defs6" /><g
     transform="matrix(1.25,0,0,-1.25,-414.94154,456.15863)"
     id="g10"><path
       d="m 354.9803,344.4534 -21.1859,-10e-5 10.5929,18.3476 10.593,-18.3475 z"
       style="fill:#ffffff;fill-opacity:1;fill-rule:nonzero;stroke:#00a650;stroke-width:2.12599993;stroke-linecap:butt;stroke-linejoin:miter;stroke-miterlimit:3.86360002;stroke-dasharray:none;stroke-opacity:1"
       id="path388" /><path
       d="m 343.9332,356.2499 1.9285,0 0,-6.0346 c 0,-0.789 -0.069,-1.3959 -0.2078,-1.8207 -0.1862,-0.555 -0.5239,-1.0004 -1.0131,-1.3364 -0.4892,-0.3359 -1.1343,-0.5039 -1.9352,-0.5039 -0.9394,0 -1.6624,0.2625 -2.169,0.7877 -0.3885,0.4399 -0.5438,0.716 -0.6646,1.4833 l 1.6991,0.3969 c 0.086,-0.1553 0.068,-0.355 0.1725,-0.4831 0.2058,-0.3407 0.6054,-0.5357 1.0256,-0.5357 0.4245,0 0.7246,0.1224 0.9004,0.3673 0.1757,0.2448 0.2636,0.7528 0.2636,1.524 l 0,6.1552 z"
       style="fill:#00a650;fill-opacity:1;fill-rule:evenodd;stroke:#00a650;stroke-width:0.2834;stroke-linecap:butt;stroke-linejoin:miter;stroke-miterlimit:3.86360002;stroke-dasharray:none;stroke-opacity:1"
       id="path390" /></g></svg>