<?xml version="1.0" encoding="UTF-8" standalone="no"?>
<svg
   xmlns:dc="http://purl.org/dc/elements/1.1/"
   xmlns:cc="http://creativecommons.org/ns#"
   xmlns:rdf="http://www.w3.org/1999/02/22-rdf-syntax-ns#"
   xmlns:svg="http://www.w3.org/2000/svg"
   xmlns="http://www.w3.org/2000/svg"
   viewBox="0 0 109.51556 68.617203"
   height="68.617203"
   width="109.51556"
   xml:space="preserve"
   version="1.1"
   id="svg2"><metadata
     id="metadata8"><rdf:RDF><cc:Work
         rdf:about=""><dc:format>image/svg+xml</dc:format><dc:type
           rdf:resource="http://purl.org/dc/dcmitype/StillImage" /><dc:title></dc:title></cc:Work></rdf:RDF></metadata><defs
     id="defs6" /><g
     transform="matrix(1.25,0,0,-1.25,-318.3622,179.46377)"
     id="g10"><g
       id="g4840"><path
         id="path294"
         style="fill:#00a650;fill-opacity:1;fill-rule:nonzero;stroke:none"
         d="m 282.44332,88.71613 c 0.6048,0.162 0.9637,0.784 0.8017,1.389 -0.1621,0.605 -0.784,0.964 -1.3888,0.802 -0.6049,-0.163 -0.9638,-0.784 -0.8018,-1.389 0.1622,-0.605 0.7839,-0.964 1.3889,-0.802 z" /><path
         id="path296"
         style="fill:#00a650;fill-opacity:1;fill-rule:nonzero;stroke:none"
         d="m 284.71662,92.65413 c 0.6049,0.162 0.9639,0.784 0.8018,1.389 -0.162,0.604 -0.7839,0.963 -1.3887,0.801 -0.6049,-0.162 -0.9639,-0.784 -0.8018,-1.388 0.162,-0.605 0.7839,-0.964 1.3887,-0.802 z" /><path
         id="path298"
         style="fill:#00a650;fill-opacity:1;fill-rule:nonzero;stroke:none"
         d="m 287.01232,88.73913 c 0.6048,0.162 0.9639,0.784 0.8017,1.389 -0.1621,0.605 -0.7838,0.964 -1.3888,0.802 -0.6047,-0.162 -0.9637,-0.784 -0.8016,-1.389 0.162,-0.605 0.7839,-0.964 1.3887,-0.802 z" /></g><g
       id="g4835"><path
         id="path300"
         style="fill:#00a650;fill-opacity:1;fill-rule:nonzero;stroke:none"
         d="m 296.13082,111.65413 c 0.6048,0.162 0.9637,0.784 0.8017,1.388 -0.1621,0.605 -0.784,0.964 -1.3888,0.802 -0.6049,-0.162 -0.9638,-0.784 -0.8018,-1.389 0.1622,-0.605 0.7839,-0.963 1.3889,-0.801 z" /><path
         id="path302"
         style="fill:#00a650;fill-opacity:1;fill-rule:nonzero;stroke:none"
         d="m 298.40412,115.59113 c 0.6049,0.162 0.9639,0.784 0.8018,1.389 -0.162,0.605 -0.7839,0.964 -1.3887,0.802 -0.6049,-0.162 -0.9639,-0.784 -0.8018,-1.389 0.162,-0.605 0.7839,-0.964 1.3887,-0.802 z" /><path
         id="path304"
         style="fill:#00a650;fill-opacity:1;fill-rule:nonzero;stroke:none"
         d="m 300.69982,111.67713 c 0.6048,0.162 0.9639,0.784 0.8017,1.389 -0.1621,0.605 -0.7838,0.963 -1.3888,0.801 -0.6047,-0.162 -0.9637,-0.784 -0.8016,-1.388 0.162,-0.605 0.7839,-0.964 1.3887,-0.802 z" /></g><g
       id="g4820"><path
         id="path306"
         style="fill:#00a650;fill-opacity:1;fill-rule:nonzero;stroke:none"
         d="m 310.75582,136.52913 c 0.6048,0.162 0.9637,0.784 0.8017,1.388 -0.1621,0.605 -0.784,0.964 -1.3888,0.802 -0.6049,-0.162 -0.9638,-0.784 -0.8018,-1.389 0.1622,-0.605 0.7839,-0.964 1.3889,-0.801 z" /><path
         id="path308"
         style="fill:#00a650;fill-opacity:1;fill-rule:nonzero;stroke:none"
         d="m 313.02912,140.46613 c 0.6049,0.162 0.9639,0.784 0.8018,1.389 -0.162,0.605 -0.7839,0.964 -1.3887,0.802 -0.6049,-0.162 -0.9639,-0.784 -0.8018,-1.389 0.162,-0.605 0.7839,-0.964 1.3887,-0.802 z" /><path
         id="path310"
         style="fill:#00a650;fill-opacity:1;fill-rule:nonzero;stroke:none"
         d="m 315.32482,136.55213 c 0.6049,0.162 0.9639,0.784 0.8017,1.389 -0.1621,0.605 -0.7838,0.963 -1.3888,0.801 -0.6047,-0.162 -0.9637,-0.784 -0.8016,-1.388 0.162,-0.605 0.7839,-0.964 1.3887,-0.802 z" /></g><g
       transform="translate(0.74986361,0)"
       id="g4845"><path
         id="path312"
         style="fill:#00a650;fill-opacity:1;fill-rule:nonzero;stroke:none"
         d="m 267.13082,111.90413 c 0.6048,0.162 0.9637,0.784 0.8017,1.388 -0.1621,0.605 -0.784,0.964 -1.3888,0.802 -0.6049,-0.162 -0.9638,-0.784 -0.8018,-1.389 0.1622,-0.605 0.7839,-0.963 1.3889,-0.801 z" /><path
         id="path314"
         style="fill:#00a650;fill-opacity:1;fill-rule:nonzero;stroke:none"
         d="m 269.40412,115.84113 c 0.6049,0.162 0.9639,0.784 0.8018,1.389 -0.162,0.605 -0.7839,0.964 -1.3887,0.802 -0.6049,-0.162 -0.9639,-0.784 -0.8018,-1.389 0.162,-0.605 0.7839,-0.964 1.3887,-0.802 z" /><path
         id="path316"
         style="fill:#00a650;fill-opacity:1;fill-rule:nonzero;stroke:none"
         d="m 271.69982,111.92713 c 0.6048,0.162 0.9639,0.784 0.8017,1.389 -0.1621,0.605 -0.7838,0.963 -1.3888,0.801 -0.6047,-0.162 -0.9637,-0.784 -0.8016,-1.388 0.162,-0.605 0.7839,-0.964 1.3887,-0.802 z" /></g><g
       id="g4830"><path
         id="path324"
         style="fill:#00a650;fill-opacity:1;fill-rule:nonzero;stroke:none"
         d="m 310.94332,88.71613 c 0.6048,0.162 0.9637,0.784 0.8017,1.389 -0.1621,0.605 -0.784,0.964 -1.3888,0.802 -0.6049,-0.163 -0.9638,-0.784 -0.8018,-1.389 0.1622,-0.605 0.7839,-0.964 1.3889,-0.802 z" /><path
         id="path326"
         style="fill:#00a650;fill-opacity:1;fill-rule:nonzero;stroke:none"
         d="m 313.21662,92.65413 c 0.6049,0.162 0.9639,0.784 0.8018,1.389 -0.162,0.604 -0.7839,0.963 -1.3887,0.801 -0.6049,-0.162 -0.9639,-0.784 -0.8018,-1.388 0.162,-0.605 0.7839,-0.964 1.3887,-0.802 z" /><path
         id="path328"
         style="fill:#00a650;fill-opacity:1;fill-rule:nonzero;stroke:none"
         d="m 315.51232,88.73913 c 0.6049,0.162 0.9639,0.784 0.8017,1.389 -0.1621,0.605 -0.7838,0.964 -1.3888,0.802 -0.6047,-0.162 -0.9637,-0.784 -0.8016,-1.389 0.162,-0.605 0.7839,-0.964 1.3887,-0.802 z" /></g><g
       id="g4815"><path
         id="path388"
         style="fill:#00a650;fill-opacity:1;fill-rule:nonzero;stroke:none"
         d="m 284.52912,141.34113 c 0.6049,0.162 0.9639,0.784 0.8018,1.389 -0.162,0.605 -0.7839,0.964 -1.3887,0.802 -0.6049,-0.162 -0.9639,-0.784 -0.8018,-1.389 0.162,-0.605 0.7839,-0.964 1.3887,-0.802 z" /><path
         id="path390"
         style="fill:#00a650;fill-opacity:1;fill-rule:nonzero;stroke:none"
         d="m 282.25582,137.40413 c 0.6048,0.162 0.9637,0.784 0.8017,1.388 -0.1621,0.605 -0.784,0.964 -1.3888,0.802 -0.6049,-0.162 -0.9638,-0.784 -0.8018,-1.389 0.1622,-0.605 0.7839,-0.963 1.3889,-0.801 z" /><path
         id="path392"
         style="fill:#00a650;fill-opacity:1;fill-rule:nonzero;stroke:none"
         d="m 286.82482,137.42713 c 0.6048,0.162 0.9639,0.784 0.8017,1.389 -0.1621,0.605 -0.7838,0.963 -1.3888,0.801 -0.6047,-0.162 -0.9637,-0.784 -0.8016,-1.388 0.162,-0.605 0.7839,-0.964 1.3887,-0.802 z" /></g><path
       id="path4870"
       style="fill:#00a650;fill-opacity:1;fill-rule:nonzero;stroke:none"
       d="m 256.11738,140.46613 c 0.6049,0.162 0.9639,0.784 0.8018,1.389 -0.162,0.605 -0.7839,0.964 -1.3887,0.802 -0.6049,-0.162 -0.9639,-0.784 -0.8018,-1.389 0.162,-0.605 0.7839,-0.964 1.3887,-0.802 z" /><path
       id="path4872"
       style="fill:#00a650;fill-opacity:1;fill-rule:nonzero;stroke:none"
       d="m 258.41308,136.55213 c 0.6049,0.162 0.9639,0.784 0.8017,1.389 -0.1621,0.605 -0.7838,0.963 -1.3888,0.801 -0.6047,-0.162 -0.9637,-0.784 -0.8016,-1.388 0.162,-0.605 0.7839,-0.964 1.3887,-0.802 z" /><path
       id="path4894"
       style="fill:#00a650;fill-opacity:1;fill-rule:nonzero;stroke:none"
       d="m 256.30488,92.65413 c 0.6049,0.162 0.9639,0.784 0.8018,1.389 -0.162,0.604 -0.7839,0.963 -1.3887,0.801 -0.6049,-0.162 -0.9639,-0.784 -0.8018,-1.388 0.162,-0.605 0.7839,-0.964 1.3887,-0.802 z" /><path
       id="path4896"
       style="fill:#00a650;fill-opacity:1;fill-rule:nonzero;stroke:none"
       d="m 258.60058,88.73913 c 0.6049,0.162 0.9639,0.784 0.8017,1.389 -0.1621,0.605 -0.7838,0.964 -1.3888,0.802 -0.6047,-0.162 -0.9637,-0.784 -0.8016,-1.389 0.162,-0.605 0.7839,-0.964 1.3887,-0.802 z" /><g
       transform="translate(28.244863,0)"
       id="g4920"><path
         d="m 296.13082,111.65413 c 0.6048,0.162 0.9637,0.784 0.8017,1.388 -0.1621,0.605 -0.784,0.964 -1.3888,0.802 -0.6049,-0.162 -0.9638,-0.784 -0.8018,-1.389 0.1622,-0.605 0.7839,-0.963 1.3889,-0.801 z"
         style="fill:#00a650;fill-opacity:1;fill-rule:nonzero;stroke:none"
         id="path4922" /><path
         d="m 298.40412,115.59113 c 0.6049,0.162 0.9639,0.784 0.8018,1.389 -0.162,0.605 -0.7839,0.964 -1.3887,0.802 -0.6049,-0.162 -0.9639,-0.784 -0.8018,-1.389 0.162,-0.605 0.7839,-0.964 1.3887,-0.802 z"
         style="fill:#00a650;fill-opacity:1;fill-rule:nonzero;stroke:none"
         id="path4924" /><path
         d="m 300.69982,111.67713 c 0.6048,0.162 0.9639,0.784 0.8017,1.389 -0.1621,0.605 -0.7838,0.963 -1.3888,0.801 -0.6047,-0.162 -0.9637,-0.784 -0.8016,-1.388 0.162,-0.605 0.7839,-0.964 1.3887,-0.802 z"
         style="fill:#00a650;fill-opacity:1;fill-rule:nonzero;stroke:none"
         id="path4926" /></g><path
       id="path4930"
       style="fill:#00a650;fill-opacity:1;fill-rule:nonzero;stroke:none"
       d="m 339.00068,136.52913 c 0.6048,0.162 0.9637,0.784 0.8017,1.388 -0.1621,0.605 -0.784,0.964 -1.3888,0.802 -0.6049,-0.162 -0.9638,-0.784 -0.8018,-1.389 0.1622,-0.605 0.7839,-0.964 1.3889,-0.801 z" /><path
       id="path4932"
       style="fill:#00a650;fill-opacity:1;fill-rule:nonzero;stroke:none"
       d="m 341.27398,140.46613 c 0.6049,0.162 0.9639,0.784 0.8018,1.389 -0.162,0.605 -0.7839,0.964 -1.3887,0.802 -0.6049,-0.162 -0.9639,-0.784 -0.8018,-1.389 0.162,-0.605 0.7839,-0.964 1.3887,-0.802 z" /><path
       id="path4954"
       style="fill:#00a650;fill-opacity:1;fill-rule:nonzero;stroke:none"
       d="m 339.18818,88.71613 c 0.6048,0.162 0.9637,0.784 0.8017,1.389 -0.1621,0.605 -0.784,0.964 -1.3888,0.802 -0.6049,-0.163 -0.9638,-0.784 -0.8018,-1.389 0.1622,-0.605 0.7839,-0.964 1.3889,-0.802 z" /><path
       id="path4956"
       style="fill:#00a650;fill-opacity:1;fill-rule:nonzero;stroke:none"
       d="m 341.46148,92.65413 c 0.6049,0.162 0.9639,0.784 0.8018,1.389 -0.162,0.604 -0.7839,0.963 -1.3887,0.801 -0.6049,-0.162 -0.9639,-0.784 -0.8018,-1.388 0.162,-0.605 0.7839,-0.964 1.3887,-0.802 z" /></g></svg>