<?xml version="1.0" encoding="UTF-8" standalone="no"?>
<svg
   xmlns:dc="http://purl.org/dc/elements/1.1/"
   xmlns:cc="http://creativecommons.org/ns#"
   xmlns:rdf="http://www.w3.org/1999/02/22-rdf-syntax-ns#"
   xmlns:svg="http://www.w3.org/2000/svg"
   xmlns="http://www.w3.org/2000/svg"
   viewBox="0 0 119.06056 54.314899"
   height="54.314899"
   width="119.06056"
   xml:space="preserve"
   version="1.1"
   id="svg2"><metadata
     id="metadata8"><rdf:RDF><cc:Work
         rdf:about=""><dc:format>image/svg+xml</dc:format><dc:type
           rdf:resource="http://purl.org/dc/dcmitype/StillImage" /><dc:title></dc:title></cc:Work></rdf:RDF></metadata><defs
     id="defs6" /><g
     transform="matrix(1.25,0,0,-1.25,-374.00177,463.6893)"
     id="g10"><path
       d="m 318.4288,369.219 c 1.3242,1.324 3.4711,1.324 4.7953,0 1.3239,-1.325 1.3239,-3.471 0,-4.795 -1.3242,-1.325 -3.4711,-1.325 -4.7953,0 -1.3239,1.324 -1.3239,3.471 0,4.795 z"
       style="fill:none;stroke:#00a650;stroke-width:1.48819995;stroke-linecap:butt;stroke-linejoin:miter;stroke-miterlimit:3.86360002;stroke-dasharray:none;stroke-opacity:1"
       id="path382" /><path
       d="m 336.0653,351.691 c 1.3243,1.324 3.471,1.324 4.7952,0 1.3239,-1.325 1.3239,-3.471 0,-4.796 -1.3242,-1.324 -3.4709,-1.324 -4.7952,0 -1.324,1.325 -1.324,3.471 0,4.796 z"
       style="fill:none;stroke:#00a650;stroke-width:1.48819995;stroke-linecap:butt;stroke-linejoin:miter;stroke-miterlimit:3.86360002;stroke-dasharray:none;stroke-opacity:1"
       id="path384" /><path
       d="m 353.57,369.164 c 1.3239,1.324 3.471,1.324 4.7948,0 1.3243,-1.324 1.3243,-3.471 0,-4.795 -1.3238,-1.324 -3.4709,-1.324 -4.7948,0 -1.3242,1.324 -1.3242,3.471 0,4.795 z"
       style="fill:none;stroke:#00a650;stroke-width:1.48819995;stroke-linecap:butt;stroke-linejoin:miter;stroke-miterlimit:3.86360002;stroke-dasharray:none;stroke-opacity:1"
       id="path386" /><path
       d="m 300.934,351.637 c 1.3239,1.324 3.4709,1.324 4.795,0 1.3242,-1.324 1.3242,-3.471 0,-4.795 -1.3241,-1.324 -3.4711,-1.324 -4.795,0 -1.3242,1.324 -1.3242,3.471 0,4.795 z"
       style="fill:none;stroke:#00a650;stroke-width:1.48819995;stroke-linecap:butt;stroke-linejoin:miter;stroke-miterlimit:3.86360002;stroke-dasharray:none;stroke-opacity:1"
       id="path388" /><path
       d="m 353.4013,334.324 c 1.3241,1.324 3.4709,1.324 4.7952,0 1.3239,-1.324 1.3239,-3.471 0,-4.795 -1.3243,-1.324 -3.4711,-1.324 -4.7952,0 -1.324,1.324 -1.324,3.471 0,4.796 z"
       style="fill:none;stroke:#00a650;stroke-width:1.48819995;stroke-linecap:butt;stroke-linejoin:miter;stroke-miterlimit:3.86360002;stroke-dasharray:none;stroke-opacity:1"
       id="path390" /><path
       d="m 318.4886,334.028 c 1.324,1.324 3.4711,1.324 4.7949,0 1.3243,-1.325 1.3243,-3.472 0,-4.796 -1.3238,-1.324 -3.4709,-1.324 -4.7949,0 -1.3241,1.325 -1.3241,3.471 0,4.796 z"
       style="fill:none;stroke:#00a650;stroke-width:1.48819995;stroke-linecap:butt;stroke-linejoin:miter;stroke-miterlimit:3.86360002;stroke-dasharray:none;stroke-opacity:1"
       id="path392" /><path
       d="m 370.8513,351.664 c 1.3239,1.324 3.4709,1.324 4.7948,0 1.3242,-1.324 1.3242,-3.471 0,-4.795 -1.3239,-1.324 -3.4709,-1.324 -4.7948,0 -1.3244,1.324 -1.3244,3.471 0,4.795 z"
       style="fill:none;stroke:#00a650;stroke-width:1.48819995;stroke-linecap:butt;stroke-linejoin:miter;stroke-miterlimit:3.86360002;stroke-dasharray:none;stroke-opacity:1"
       id="path394" /><path
       id="path4989"
       style="fill:none;stroke:#00a650;stroke-width:1.48819995;stroke-linecap:butt;stroke-linejoin:miter;stroke-miterlimit:3.86360002;stroke-dasharray:none;stroke-opacity:1"
       d="m 387.92241,369.164 c 1.3239,1.324 3.471,1.324 4.7948,0 1.3243,-1.324 1.3243,-3.471 0,-4.795 -1.3238,-1.324 -3.4709,-1.324 -4.7948,0 -1.3242,1.324 -1.3242,3.471 0,4.795 z" /><path
       id="path4991"
       style="fill:none;stroke:#00a650;stroke-width:1.48819995;stroke-linecap:butt;stroke-linejoin:miter;stroke-miterlimit:3.86360002;stroke-dasharray:none;stroke-opacity:1"
       d="m 387.75371,334.324 c 1.3241,1.324 3.4709,1.324 4.7952,0 1.3239,-1.324 1.3239,-3.471 0,-4.795 -1.3243,-1.324 -3.4711,-1.324 -4.7952,0 -1.324,1.324 -1.324,3.471 0,4.796 z" /></g></svg>